<svg display="none" xmlns="http://www.w3.org/2000/svg">

    <symbol id="close-icon" viewBox="0 0 32 32">
        <path
            d="M9.20132 23.7772L8.22266 22.8079L15.0213 15.9999L8.22266 9.22653L9.20132 8.25586L16 15.0532L22.7653 8.25719L23.744 9.22653L16.9453 15.9999L23.744 22.8079L22.7653 23.7772L16 16.9825L9.20132 23.7772Z" />
    </symbol>

    <symbol id="star" viewBox="0 0 26 22">
        <path
            d="M8.38108 18.0766L13.0011 15.2899L17.6211 18.1132L16.4111 12.8332L20.4811 9.31323L15.1277 8.83656L13.0011 3.8499L10.8744 8.7999L5.52108 9.27656L9.59108 12.8332L8.38108 18.0766ZM6.14442 21.1536L7.96308 13.3612L1.91602 8.1223L9.88148 7.43296L13.0011 0.0834961L16.1207 7.4315L24.0847 8.12083L18.0376 13.3598L19.8577 21.1522L13.0011 17.0162L6.14442 21.1536Z" />
    </symbol>


</svg>